
<?xml version="1.0" encoding="UTF-8"?>
<svg version="1.1" xmlns="http://www.w3.org/2000/svg" width="256" height="256">
<path d="M0 0 C3.52718031 2.81879263 5.57515818 5.72547453 7 10 C7 19.26713009 2.30654652 23.6651157 -4 30 C-5.81975194 31.67993807 -7.65110307 33.34737459 -9.4921875 35.00390625 C-16.29644817 41.18271953 -22.7775995 47.66475649 -29.25 54.1875 C-30.39950046 55.34203501 -31.54923904 56.49633298 -32.69921875 57.65039062 C-35.46888326 60.43088409 -38.23535902 63.21451196 -41 66 C-39.7082122 68.84015307 -38.35216917 70.89698388 -36.14599609 73.09692383 C-35.57134613 73.67465042 -34.99669617 74.25237701 -34.40463257 74.84761047 C-33.7838382 75.46121933 -33.16304382 76.07482819 -32.5234375 76.70703125 C-31.87935944 77.35065109 -31.23528137 77.99427094 -30.57168579 78.65739441 C-29.20721862 80.01884298 -27.84032432 81.37786275 -26.47119141 82.73461914 C-24.39826306 84.78944015 -22.33330021 86.85199987 -20.26953125 88.91601562 C-18.93796785 90.24265725 -17.60595051 91.56884344 -16.2734375 92.89453125 C-15.36046402 93.80583549 -15.36046402 93.80583549 -14.42904663 94.73554993 C-10.68389214 98.44045 -6.82448413 101.9610981 -2.82388306 105.38896179 C2.28078467 109.89792124 5.80548352 113.91107538 6.94140625 120.796875 C7.08071736 126.0349729 4.75973594 129.18725923 1.3125 132.875 C-2.67782917 135.43483381 -5.30961938 136.2893545 -10 136 C-18.68376928 132.9003657 -24.56506357 126.03433657 -30.92578125 119.640625 C-32.16218594 118.40946241 -33.39910788 117.17881908 -34.63652039 115.94866943 C-37.21921121 113.37635155 -39.79433376 110.79674201 -42.36450195 108.21191406 C-45.64885454 104.91035952 -48.95314477 101.62961394 -52.26362324 98.35428238 C-54.81964336 95.82028206 -57.36380092 93.27462632 -59.90468407 90.72545624 C-61.11804418 89.5112795 -62.33522425 88.30090708 -63.55636024 87.09455109 C-65.26516102 85.40328477 -66.95706694 83.69667302 -68.64575195 81.98535156 C-69.14603912 81.49675659 -69.64632629 81.00816162 -70.16177368 80.50476074 C-73.74036947 76.82851991 -75.88624921 72.98330163 -77 68 C-76.59157009 56.50046861 -64.00989528 47.80606642 -56.44140625 40.16796875 C-55.89515028 39.6163891 -55.34889431 39.06480946 -54.78608513 38.49651527 C-51.90117618 35.58508282 -49.01274115 32.67719656 -46.12182617 29.77172852 C-43.74365906 27.38017156 -41.37299633 24.98153287 -39.00854492 22.57641602 C-36.13275442 19.6512037 -33.24478389 16.73855694 -30.34773064 13.8344059 C-29.25311724 12.73310929 -28.16273848 11.62758569 -27.07687569 10.51766014 C-11.49705549 -5.38791899 -11.49705549 -5.38791899 0 0 Z " fill="#0079D5" transform="translate(89,61)"/>
<path d="M0 0 C6.16505178 5.60612359 12.11597019 11.42298674 18.03413391 17.28721619 C18.58571356 17.83347216 19.13729321 18.37972813 19.70558739 18.94253731 C22.61701984 21.82744626 25.5249061 24.71588128 28.43037415 27.60679626 C30.8219311 29.98496337 33.22056979 32.35562611 35.62568665 34.72007751 C38.55089896 37.59586802 41.46354572 40.48383855 44.36769676 43.3808918 C45.46899337 44.4755052 46.57451697 45.56588396 47.68444252 46.65174675 C58.55960926 57.30418141 58.55960926 57.30418141 60.20210266 64.72862244 C59.98572861 76.16314511 47.10012414 85.02137129 39.60835266 92.56065369 C39.06084854 93.11223333 38.51334442 93.66381298 37.94924927 94.23210716 C35.05876108 97.14329656 32.16512251 100.05131295 29.26899719 102.95689392 C26.29163354 105.94537818 23.32614837 108.94537379 20.36306 111.94800282 C18.06709371 114.27014928 15.76225171 116.58333177 13.45495605 118.89421654 C12.35762624 119.99639689 11.26365786 121.10193514 10.17324829 122.2109623 C8.64727523 123.76139024 7.10903725 125.29858973 5.56733704 126.83335876 C4.69798523 127.70857681 3.82863342 128.58379486 2.93293762 129.48553467 C-0.63611494 132.41712822 -4.32519883 134.40628852 -8.98539734 135.01377869 C-13.71692744 134.43253469 -16.91403999 132.91083233 -20.37602234 129.59971619 C-22.91779318 126.25491334 -23.76877927 122.89978649 -23.79789734 118.72862244 C-21.83536313 112.18684173 -18.25615297 107.92279638 -13.15336609 103.56626892 C-8.85119608 99.82582515 -4.8123904 95.87121788 -0.79789734 91.82627869 C0.28382751 90.74243141 0.28382751 90.74243141 1.3874054 89.63668823 C3.66135681 87.35719639 5.9317822 85.07423004 8.20210266 82.79112244 C9.75525501 81.23294738 11.30863833 79.67500251 12.86225891 78.11729431 C16.64487852 74.32372485 20.42461956 70.52730629 24.20210266 66.72862244 C22.78117747 63.49500264 21.06554947 61.34808513 18.56611633 58.86558533 C17.82161728 58.12123734 17.07711823 57.37688934 16.31005859 56.60998535 C15.50486282 55.81511215 14.69966705 55.02023895 13.87007141 54.20127869 C12.62692924 52.96238136 12.62692924 52.96238136 11.3586731 51.69845581 C8.70697362 49.05794711 6.04841878 46.42446314 3.38960266 43.79112244 C1.60984728 42.02140114 -0.16945497 40.251224 -1.94828796 38.48057556 C-5.2206306 35.22456284 -8.4955358 31.97117774 -11.77372742 28.72105408 C-12.47454437 28.02488983 -13.17536133 27.32872559 -13.89741516 26.61146545 C-15.05405493 25.46556093 -16.21398762 24.32295147 -17.379776 23.18635559 C-21.37574508 19.27181979 -23.36263842 16.38698834 -23.79789734 10.72862244 C-22.98172782 5.01543581 -20.93714857 2.42483381 -16.64945984 -1.10731506 C-11.40825484 -4.40241863 -4.98196107 -3.52297842 0 0 Z " fill="#00BFC2" transform="translate(183.7978973388672,62.27137756347656)"/>
<path d="M0 0 C4.05356469 4.17278718 4.32657652 7.75000978 4.27503395 13.47149467 C3.97867699 18.83632771 2.98185952 24.09611647 2.0612793 29.38305664 C1.84176605 30.67849899 1.62225281 31.97394135 1.39608765 33.30863953 C0.79753398 36.83868017 0.18958761 40.36704095 -0.42057443 43.8950913 C-0.9305289 46.84929357 -1.43565141 49.80431349 -1.94074696 52.75934976 C-3.13280526 59.73337886 -4.33231576 66.70609679 -5.53686523 73.67797852 C-6.77650834 80.85357991 -8.00500848 88.03102359 -9.22779208 95.20951563 C-10.28103391 101.39081825 -11.34046518 107.57103723 -12.40497655 113.75040907 C-13.03939272 117.43321546 -13.67167863 121.11635241 -14.2983036 124.80049324 C-14.99751778 128.90903726 -15.70968708 133.01523481 -16.4230957 137.12133789 C-16.62737686 138.33143524 -16.83165802 139.54153259 -17.04212952 140.78829956 C-19.67893129 155.80319682 -19.67893129 155.80319682 -24.0625 160.5625 C-28.26028059 162.98788434 -32.11769969 164.66790078 -37.02734375 163.8125 C-41.63490344 162.30238733 -44.20752345 160.34876342 -46.875 156.1875 C-50.41928753 149.09892494 -47.09926165 138.25335403 -45.8112793 130.87841797 C-45.59176605 129.58282959 -45.37225281 128.28724121 -45.14608765 126.95239258 C-44.54827042 123.42641024 -43.94006163 119.90229685 -43.32942557 116.37851477 C-42.68913925 112.67558535 -42.05712354 108.97124271 -41.42378235 105.26712036 C-40.35952546 99.05090475 -39.28834031 92.83591256 -38.21313477 86.62158203 C-36.97300086 79.45342755 -35.74456273 72.28334172 -34.52220792 65.11213577 C-33.3419727 58.19001469 -32.15279972 51.26945632 -30.95981789 44.34952164 C-30.45408317 41.41483764 -29.95156045 38.47963097 -29.4516964 35.5439415 C-28.75252438 31.44028671 -28.04034651 27.33899088 -27.3269043 23.23779297 C-27.12262314 22.02926666 -26.91834198 20.82074036 -26.70787048 19.57559204 C-24.04165845 4.41271679 -24.04165845 4.41271679 -19.5625 -0.1875 C-12.38161988 -4.52942752 -7.03553435 -4.43544557 0 0 Z " fill="#009CCC" transform="translate(149.875,47.8125)"/>
</svg>
